<svg x="0" y="0" width="300" height="300" version="1.1" xmlns="http://www.w3.org/2000/svg" xmlns:xlink="http://www.w3.org/1999/xlink"><g data-paper-data="{&quot;description&quot;:&quot;Logo for CargoMaps\n==================\n\nThis logo was generated by MarkMaker and is composed of elements designed by others.\n\nThe font is Chau Philomene One designed by Vicente Lamonaca and released under the OFL license via Google Fonts: https://www.google.com/fonts/specimen/Chau Philomene One. The font includes this copyright statement: Copyright (c) 2010-2012, TipoType (produccion.taller@gmail.com www.tipotype.com), with Reserved Font Name \\\&quot;Chau Philomene\\\n\nThe symbol is 'north' designed by James Keuning and released into the public domain at the Noun Project: https://thenounproject.com/term/north/6911.\n\nMarkMaker uses semantic data from the Princeton University WordNet database http://wordnet.princeton.edu and font descriptions from Google Fonts https://www.google.com/fonts.\n\nThis design is inspired by designs that past users of MarkMaker have liked. As a result, it may be visually similar to past or future designs generated by the system. There is no guarantee that it is unique, original, or suitable in any way for use as a logo.\n\n&quot;}" fill="#090d22" stroke="none" stroke-width="none" stroke-linecap="butt" stroke-linejoin="miter" stroke-miterlimit="none" stroke-dasharray="" stroke-dashoffset="0" font-family="none" font-weight="none" font-size="none" text-anchor="start" mix-blend-mode="normal"><g data-paper-data="{&quot;elementType&quot;:&quot;logo&quot;}" stroke-width="1" stroke-miterlimit="10" font-family="sans-serif" font-weight="normal" font-size="12"><g data-paper-data="{&quot;elementType&quot;:&quot;text&quot;}"><g data-paper-data="{&quot;baseline&quot;:52,&quot;elementType&quot;:&quot;row&quot;}"><g data-paper-data="{&quot;baselineProportion&quot;:0.6842105263157895,&quot;fontSize&quot;:100,&quot;baseline&quot;:52,&quot;elementType&quot;:&quot;word&quot;}"><path d="M167.19853,140.78332c0.09089,0.05454 0.13634,0.19088 0.13634,0.40902c0,0.21815 -0.10907,0.57263 -0.32722,1.06346c-0.21815,0.49083 -0.39993,0.80441 -0.54537,0.94076c-0.14543,0.13634 -0.28177,0.18633 -0.40902,0.14998l-0.02727,0l-0.89985,-0.38176c-0.47265,-0.23633 -1.09073,-0.35449 -1.85424,-0.35449c-0.76351,0 -1.2907,0.30904 -1.58156,0.92712c-0.29086,0.61808 -0.53173,1.62701 -0.72261,3.02678c-0.19088,1.39977 -0.28632,2.37689 -0.28632,2.93134c0,0.55446 0.02727,0.94985 0.0818,1.18617c0.18179,0.5999 0.64535,0.89985 1.39068,0.89985c1.07255,0 1.91787,-0.06363 2.53595,-0.19088c0.61808,-0.12725 0.95439,-0.19542 1.00893,-0.20451c0.05454,-0.00909 0.10907,0.01363 0.16361,0.06817c0.14543,0.16361 0.16361,0.50901 0.05454,1.0362c-0.09089,0.9453 -0.29995,1.45431 -0.62717,1.52702c-1.16345,0.29086 -2.29963,0.43629 -3.40854,0.43629c-2.19964,0 -3.62668,-0.52719 -4.28112,-1.58156c-0.41811,-0.65444 -0.62717,-1.50885 -0.62717,-2.56322c0,-1.05437 0.08635,-2.21328 0.25905,-3.47671c0.1727,-1.26343 0.40902,-2.34507 0.70898,-3.24493c0.29995,-0.89985 0.72261,-1.61792 1.26798,-2.1542c0.54537,-0.53628 1.17254,-0.89985 1.88151,-1.09073c0.70898,-0.19088 1.69518,-0.28632 2.95861,-0.28632c1.26343,0 2.30417,0.30904 3.12222,0.92712l0.02727,0z" data-paper-data="{&quot;elementType&quot;:&quot;letter&quot;,&quot;baseline&quot;:51.2,&quot;baselineProportion&quot;:0.9696969696969698,&quot;fontSize&quot;:100}"></path><path d="M170.41619,154.25385c-1.34524,0 -2.25418,-0.54537 -2.72683,-1.6361c-0.2545,-0.61808 -0.38176,-1.43159 -0.38176,-2.44051c0,-1.00893 0.0818,-2.12238 0.24541,-3.34037c0.39993,-2.72683 1.06346,-4.57198 1.99059,-5.53546c0.92712,-0.96348 2.48141,-1.44522 4.66288,-1.44522l1.30888,0l0.43629,0.21815c0.03636,-0.29086 0.37267,-0.43629 1.00893,-0.43629c0.63626,0 1.1589,0.0409 1.56793,0.12271c0.40902,0.0818 0.61354,0.18633 0.61354,0.31359l-1.90878,13.74322c-0.01818,0.10907 -0.04545,0.18179 -0.0818,0.21815c-0.10907,0.14543 -0.37267,0.21815 -0.79078,0.21815c-0.41811,0 -0.72715,-0.00909 -0.92712,-0.02727c-0.19997,-0.01818 -0.38176,-0.0409 -0.54537,-0.06817c-0.16361,-0.02727 -0.30904,-0.04999 -0.43629,-0.06817c-0.27268,-0.07272 -0.39085,-0.16361 -0.35449,-0.27268l-0.40902,-0.84532c-0.56354,0.3454 -0.97257,0.59081 -1.22707,0.73624c-0.65444,0.36358 -1.33615,0.54537 -2.04512,0.54537 M173.85199,142.47395c-0.67262,0 -1.16799,0.27723 -1.48612,0.83168c-0.31813,0.55446 -0.59536,1.66791 -0.83168,3.34037c-0.23633,1.67246 -0.37721,2.75864 -0.42266,3.25856c-0.04545,0.49992 -0.06817,0.91349 -0.06817,1.24071c0,0.32722 0.07272,0.49083 0.21815,0.49083c0.65444,0 1.57247,-0.32722 2.7541,-0.98166l1.14527,-8.18049l-1.30888,0z" data-paper-data="{&quot;elementType&quot;:&quot;letter&quot;,&quot;baseline&quot;:52,&quot;baselineProportion&quot;:0.9701492537313434,&quot;fontSize&quot;:100}"></path><path d="M184.48663,141.38322c1.59974,-1.01802 2.64502,-1.52702 3.13585,-1.52702c0.49083,0 0.91803,0.09089 1.28161,0.27268c0.36358,0.18179 0.61808,0.36358 0.76351,0.54537l0.24541,0.24541c-0.41811,1.16345 -0.72715,1.8906 -0.92712,2.18146c-0.19997,0.29086 -0.42266,0.43629 -0.66807,0.43629c-0.24541,0 -0.54082,-0.09998 -0.88622,-0.29995c-0.3454,-0.19997 -0.67262,-0.29995 -0.98166,-0.29995c-0.30904,0 -0.97257,0.28177 -1.99059,0.84532l-1.39068,10.03473c-0.01818,0.10907 -0.04545,0.18179 -0.0818,0.21815c-0.10907,0.14543 -0.40902,0.21815 -0.89985,0.21815c-0.49083,0 -0.91803,-0.01818 -1.28161,-0.05454c-0.87259,-0.09089 -1.2907,-0.21815 -1.25434,-0.38176l1.88151,-13.52507c0.03636,-0.29086 0.46356,-0.43629 1.28161,-0.43629c0.81805,0 1.27252,0.14543 1.36341,0.43629l0,0.05454l0.40902,1.0362z" data-paper-data="{&quot;elementType&quot;:&quot;letter&quot;,&quot;baseline&quot;:51.2,&quot;baselineProportion&quot;:0.9696969696969698,&quot;fontSize&quot;:100}"></path><path d="M189.47673,157.2261c1.6361,0.18179 2.93589,0.27268 3.89937,0.27268c0.96348,0 1.56793,-0.07272 1.81334,-0.21815c0.24541,-0.14543 0.42266,-0.56354 0.53173,-1.25434l0.27268,-2.64502c-0.92712,0.56354 -2.09057,0.84532 -3.49034,0.84532c-1.39977,0 -2.34507,-0.48174 -2.8359,-1.44522c-0.30904,-0.5999 -0.46356,-1.32251 -0.46356,-2.16783c0,-0.84532 0.05454,-1.677 0.16361,-2.49505c0.32722,-2.29054 0.74533,-4.01753 1.25434,-5.18098c0.50901,-1.16345 1.18617,-1.96786 2.03149,-2.41324c0.84532,-0.44538 2.0224,-0.66807 3.53124,-0.66807l1.69063,0c0.90894,0 1.83607,0.12725 2.78137,0.38176l0.43629,0.13634l-2.1542,15.652c-0.16361,1.52702 -0.69534,2.63139 -1.5952,3.3131c-0.89985,0.68171 -2.42233,1.02256 -4.56744,1.02256c-1.01802,0 -2.25418,-0.14543 -3.70849,-0.43629c-0.14543,-0.03636 -0.23178,-0.09998 -0.25905,-0.19088c-0.02727,-0.09089 -0.0409,-0.20906 -0.0409,-0.35449c0,-0.14543 0.01818,-0.38176 0.05454,-0.70898c0.14543,-0.96348 0.3454,-1.44522 0.5999,-1.44522c0,0 0.00909,0 0.02727,0l0.02727,0 M193.29429,148.11849c-0.05454,0.39993 -0.10453,0.76351 -0.14998,1.09073c-0.04545,0.32722 -0.07726,0.6408 -0.09544,0.94076c-0.01818,0.29995 -0.02727,0.61808 -0.02727,0.95439c0,0.33631 0.07272,0.50446 0.21815,0.50446c0.90894,0 1.95423,-0.32722 3.13585,-0.98166l1.14527,-8.18049l-1.69063,0c-0.47265,0 -0.83623,0.11816 -1.09073,0.35449c-0.52719,0.49083 -1.00893,2.26327 -1.44522,5.31732z" data-paper-data="{&quot;elementType&quot;:&quot;letter&quot;,&quot;baseline&quot;:51.2,&quot;baselineProportion&quot;:0.6808510638297872,&quot;fontSize&quot;:100}"></path><path d="M209.68253,139.85619c0.87259,0 1.58611,0.05908 2.14056,0.17724c0.55446,0.11816 1.04074,0.33176 1.45885,0.6408c0.41811,0.30904 0.69989,0.72715 0.84532,1.25434c0.18179,0.70898 0.27268,1.48612 0.27268,2.33144c0,0.84532 -0.0818,1.75881 -0.24541,2.74046c-0.38176,2.72683 -1.04074,4.61743 -1.97695,5.67181c-0.93621,1.05437 -2.44051,1.58156 -4.5129,1.58156c-2.07239,0 -3.41763,-0.52719 -4.03571,-1.58156c-0.39993,-0.63626 -0.5999,-1.48158 -0.5999,-2.53595c0,-1.05437 0.07272,-2.09966 0.21815,-3.13585c0.39993,-2.89044 1.04074,-4.80376 1.92241,-5.73998c0.88167,-0.93621 2.38598,-1.40432 4.5129,-1.40432 M209.98248,142.47395c-1.09073,0 -1.79971,0.24996 -2.12693,0.74988c-0.32722,0.49992 -0.60445,1.58156 -0.83168,3.24493c-0.22724,1.66337 -0.34085,2.93134 -0.34085,3.80393c0,0.87259 0.16361,1.30888 0.49083,1.30888c0.5999,0 1.04074,-0.03636 1.32251,-0.10907c0.28177,-0.07272 0.54537,-0.28177 0.79078,-0.62717c0.24541,-0.3454 0.42266,-0.78624 0.53173,-1.32251c0.10907,-0.53628 0.24996,-1.40432 0.42266,-2.60412c0.1727,-1.1998 0.25905,-2.24054 0.25905,-3.12222c0,-0.88167 -0.1727,-1.32251 -0.5181,-1.32251z" data-paper-data="{&quot;elementType&quot;:&quot;letter&quot;,&quot;baseline&quot;:51.2,&quot;baselineProportion&quot;:0.9696969696969698,&quot;fontSize&quot;:100}"></path><path d="M230.54278,145.528c0.16361,-1.01802 0.24541,-1.78153 0.24541,-2.29054c0,-0.50901 -0.0818,-0.76351 -0.24541,-0.76351c-0.61808,0 -1.59065,0.35449 -2.91771,1.06346c0,0.70898 -0.04545,1.3725 -0.13634,1.99059l-1.14527,8.28956c-0.01818,0.10907 -0.04545,0.18179 -0.0818,0.21815c-0.10907,0.14543 -0.41357,0.21815 -0.91349,0.21815c-0.49992,0 -0.95894,-0.01818 -1.37705,-0.05454c-1.07255,-0.09089 -1.59065,-0.21815 -1.55429,-0.38176l1.28161,-9.29849c0.07272,-0.54537 0.10907,-1.02256 0.10907,-1.43159c0,-0.40902 -0.0818,-0.61354 -0.24541,-0.61354c-0.65444,0 -1.57247,0.32722 -2.7541,0.98166l-1.44522,10.36195c-0.01818,0.10907 -0.04545,0.18179 -0.0818,0.21815c-0.10907,0.14543 -0.41357,0.21815 -0.91349,0.21815c-0.49992,0 -0.95894,-0.01818 -1.37705,-0.05454c-1.07255,-0.09089 -1.59065,-0.21815 -1.55429,-0.38176l1.88151,-13.52507c0.03636,-0.29086 0.52264,-0.43629 1.45885,-0.43629c0.93621,0 1.46794,0.14543 1.5952,0.43629c0,0.03636 0.00909,0.05454 0.02727,0.05454l0.38176,1.0362c1.65428,-1.01802 2.85408,-1.52702 3.59941,-1.52702c1.59974,0 2.59958,0.58172 2.99951,1.74517c1.85424,-1.16345 3.1813,-1.74517 3.98117,-1.74517c1.34524,0 2.28145,0.41811 2.80863,1.25434c0.30904,0.52719 0.46356,1.1998 0.46356,2.01785c0,0.81805 -0.05454,1.61792 -0.16361,2.39961l-1.14527,8.28956c-0.01818,0.10907 -0.04545,0.18179 -0.0818,0.21815c-0.10907,0.14543 -0.41357,0.21815 -0.91349,0.21815c-0.49992,0 -0.95894,-0.01818 -1.37705,-0.05454c-1.07255,-0.09089 -1.59065,-0.21815 -1.55429,-0.38176l1.14527,-8.28956z" data-paper-data="{&quot;elementType&quot;:&quot;letter&quot;,&quot;baseline&quot;:51.2,&quot;baselineProportion&quot;:0.9696969696969698,&quot;fontSize&quot;:100}"></path><path d="M238.47785,154.25385c-1.34524,0 -2.25418,-0.54537 -2.72683,-1.6361c-0.2545,-0.61808 -0.38176,-1.43159 -0.38176,-2.44051c0,-1.00893 0.0818,-2.12238 0.24541,-3.34037c0.39993,-2.72683 1.06346,-4.57198 1.99059,-5.53546c0.92712,-0.96348 2.48141,-1.44522 4.66288,-1.44522l1.30888,0l0.43629,0.21815c0.03636,-0.29086 0.37267,-0.43629 1.00893,-0.43629c0.63626,0 1.1589,0.0409 1.56793,0.12271c0.40902,0.0818 0.61354,0.18633 0.61354,0.31359l-1.90878,13.74322c-0.01818,0.10907 -0.04545,0.18179 -0.0818,0.21815c-0.10907,0.14543 -0.37267,0.21815 -0.79078,0.21815c-0.41811,0 -0.72715,-0.00909 -0.92712,-0.02727c-0.19997,-0.01818 -0.38176,-0.0409 -0.54537,-0.06817c-0.16361,-0.02727 -0.30904,-0.04999 -0.43629,-0.06817c-0.27268,-0.07272 -0.39085,-0.16361 -0.35449,-0.27268l-0.40902,-0.84532c-0.56354,0.3454 -0.97257,0.59081 -1.22707,0.73624c-0.65444,0.36358 -1.33615,0.54537 -2.04512,0.54537 M241.91366,142.47395c-0.67262,0 -1.16799,0.27723 -1.48612,0.83168c-0.31813,0.55446 -0.59536,1.66791 -0.83168,3.34037c-0.23633,1.67246 -0.37721,2.75864 -0.42266,3.25856c-0.04545,0.49992 -0.06817,0.91349 -0.06817,1.24071c0,0.32722 0.07272,0.49083 0.21815,0.49083c0.65444,0 1.57247,-0.32722 2.7541,-0.98166l1.14527,-8.18049l-1.30888,0z" data-paper-data="{&quot;elementType&quot;:&quot;letter&quot;,&quot;baseline&quot;:52,&quot;baselineProportion&quot;:0.9701492537313434,&quot;fontSize&quot;:100}"></path><path d="M256.28405,139.85619c1.34524,0 2.25418,0.54537 2.72683,1.6361c0.2545,0.61808 0.38176,1.43159 0.38176,2.44051c0,1.00893 -0.0818,2.12238 -0.24541,3.34037c-0.38176,2.70865 -1.0362,4.54926 -1.96332,5.52183c-0.92712,0.97257 -2.4905,1.45885 -4.69015,1.45885l-1.30888,0l-0.79078,5.67181c-0.01818,0.10907 -0.04545,0.18179 -0.0818,0.21815c-0.07272,0.14543 -0.41357,0.21815 -1.02256,0.21815c-0.60899,0 -1.19072,-0.04545 -1.74517,-0.13634c-0.55446,-0.09089 -0.82259,-0.19088 -0.80441,-0.29995l2.7541,-19.63317c0.03636,-0.29086 0.4772,-0.43629 1.32251,-0.43629c0.84532,0 1.3316,0.14543 1.45885,0.43629l0.40902,1.09073c1.65428,-1.01802 2.85408,-1.52702 3.59941,-1.52702 M252.87551,151.6361c0.67262,0 1.16799,-0.27723 1.48612,-0.83168c0.31813,-0.55446 0.61354,-1.79971 0.88622,-3.73576c0.27268,-1.93605 0.40902,-3.17676 0.40902,-3.72212c0,-0.54537 -0.06363,-0.83623 -0.19088,-0.87259c-0.65444,0 -1.57247,0.32722 -2.7541,0.98166l-1.14527,8.18049l1.30888,0z" data-paper-data="{&quot;elementType&quot;:&quot;letter&quot;,&quot;baseline&quot;:51.2,&quot;baselineProportion&quot;:0.6808510638297872,&quot;fontSize&quot;:100}"></path><path d="M269.9182,148.882c0,0.10907 -0.00909,0.22724 -0.02727,0.35449c-0.19997,1.50885 -0.76806,2.72228 -1.70427,3.64032c-0.93621,0.91803 -2.09057,1.37705 -3.46307,1.37705c-1.3725,0 -2.42233,-0.18179 -3.14949,-0.54537c-0.72715,-0.36358 -1.30888,-0.88167 -1.74517,-1.55429c-0.05454,-0.03636 -0.0818,-0.0818 -0.0818,-0.13634c0,-0.19997 0.25905,-0.56809 0.77715,-1.10437c0.5181,-0.53628 0.89531,-0.80441 1.13163,-0.80441c0.05454,0 0.11816,0.03636 0.19088,0.10907c0.85441,0.76351 1.73608,1.14527 2.64502,1.14527c0.50901,0 0.92712,-0.15907 1.25434,-0.4772c0.32722,-0.31813 0.49083,-0.6408 0.49083,-0.96802c0,-0.32722 -0.11816,-0.5999 -0.35449,-0.81805c-0.36358,-0.29086 -0.99984,-0.66353 -1.90878,-1.118c-1.87242,-0.99984 -2.80863,-2.19055 -2.80863,-3.57215c0,-0.12725 0.00909,-0.26359 0.02727,-0.40902c0.19997,-1.45431 0.72261,-2.50868 1.56793,-3.16312c0.84532,-0.65444 2.04058,-0.98166 3.58578,-0.98166c1.5452,0 2.69047,0.30904 3.43581,0.92712l0.02727,0c0.12725,0.09089 0.19088,0.23633 0.19088,0.43629c0,0.19997 -0.04545,0.43629 -0.13634,0.70898c-0.3454,1.05437 -0.64535,1.58156 -0.89985,1.58156c-0.03636,0 -0.0818,-0.01818 -0.13634,-0.05454l-0.95439,-0.5181c-0.76351,-0.30904 -1.41795,-0.46356 -1.96332,-0.46356c-0.81805,0.03636 -1.28161,0.4272 -1.39068,1.17254c-0.03636,0.29086 0.09089,0.52719 0.38176,0.70898c0.29086,0.18179 0.53173,0.32267 0.72261,0.42266c0.19088,0.09998 0.46811,0.24087 0.83168,0.42266c1.27252,0.5999 2.16783,1.22253 2.68593,1.86788c0.5181,0.64535 0.77715,1.2498 0.77715,1.81334z" data-paper-data="{&quot;elementType&quot;:&quot;letter&quot;,&quot;baseline&quot;:51.2,&quot;baselineProportion&quot;:0.9696969696969698,&quot;fontSize&quot;:100}"></path></g></g></g></g><g data-paper-data="{&quot;elementType&quot;:&quot;emblem&quot;}" stroke="#060606" stroke-width="0.00712" stroke-miterlimit="4" font-family="&quot;Helvetica Neue&quot;, Helvetica, Arial, sans-serif" font-weight="bold" font-size="24"><path d="M30.00099,158.50116c0.00148,0.0478 0.00495,0.09491 0.00974,0.14276c0.14276,0.72682 0.59703,1.36278 1.14214,1.85598c2.50492,2.42705 4.95793,4.90601 7.39795,7.39795c0.58405,0.57107 1.31087,1.18108 2.16747,1.15512c0.97342,-0.14276 2.01172,-0.81767 2.16747,-1.85598c0.1817,-0.66192 -0.01298,-1.36278 -0.48022,-1.85598c-1.33682,-1.63534 -2.97216,-3.0111 -4.41282,-4.55558c14.84783,-0.03894 29.69565,0 44.54347,-0.01298c-0.01298,15.40592 0.02596,30.82481 -0.01298,46.23073c-1.64832,-1.51853 -3.08897,-3.24472 -4.80218,-4.68537c-1.20703,-0.90852 -3.12791,-0.10382 -3.42642,1.3498c-0.38937,1.18108 0.4932,2.14151 1.24597,2.89429c2.23236,2.19343 4.43877,4.39984 6.6322,6.61922c0.66192,0.64894 1.32385,1.36278 2.21939,1.71321l0.84363,0c1.25895,-0.57107 2.15449,-1.67427 3.11493,-2.62173c2.10258,-2.18045 4.32196,-4.25707 6.41156,-6.43752c0.6749,-0.59703 0.70086,-1.57044 0.51916,-2.38811c-0.44128,-1.31087 -2.24534,-1.99875 -3.38749,-1.12916c-1.71321,1.44065 -3.15386,3.16684 -4.80218,4.68537c-0.03894,-15.40592 0,-30.82481 -0.01298,-46.23073c15.97699,0.01298 31.95397,-0.02596 47.93096,0.01298c-1.41469,1.50555 -2.98513,2.8294 -4.296,4.4258c-0.57107,0.61001 -0.81767,1.55746 -0.46724,2.34918c0.35043,0.84363 1.22001,1.45363 2.12853,1.49257c1.01235,-0.03894 1.83002,-0.79171 2.5179,-1.47959c2.24534,-2.29726 4.52962,-4.56856 6.81391,-6.82688c0.70086,-0.72682 1.58342,-1.64832 1.24597,-2.7645c-0.10382,-0.77873 -0.76575,-1.31087 -1.25895,-1.85598c-2.34917,-2.32322 -4.68537,-4.65941 -7.00859,-7.02157c-0.72682,-0.70086 -1.64832,-1.58342 -2.7645,-1.24597c-1.50555,0.2466 -2.38811,2.2713 -1.42767,3.50429c1.45363,1.6613 3.12791,3.11493 4.63345,4.72431c-16.01592,0.02596 -32.03184,0 -48.04777,0.01298c0,-7.51476 -0.01298,-15.04251 0.01298,-22.55727c1.80406,-0.25958 3.6211,-0.54511 5.34729,-1.15512c6.43752,-2.12853 11.94056,-7.03455 14.61421,-13.29036c3.10195,-6.73603 2.72556,-14.93868 -0.89554,-21.40215c-3.60813,-6.86582 -10.73352,-11.53821 -18.3651,-12.5895l-5.97028,0c-3.67302,0.55809 -7.22923,1.83002 -10.33118,3.88068c-6.13901,3.98451 -10.27926,10.88927 -10.87629,18.18339c-0.7398,6.95667 1.92087,14.06909 6.76199,19.05298c3.97153,4.12728 9.46159,6.72305 15.14634,7.32008c0.02596,7.51476 0.01298,15.02953 0.01298,22.55727c-14.84783,0 -29.69565,0.01298 -44.54347,-0.01298c1.3498,-1.42768 2.79046,-2.75152 4.14026,-4.1792c0.6749,-0.72682 1.07725,-1.89491 0.55809,-2.81641c-0.46724,-1.06427 -1.88194,-1.60938 -2.93322,-1.11618c-1.02533,0.62298 -1.843,1.53151 -2.68663,2.37513c-2.05066,2.10258 -4.16622,4.14026 -6.22986,6.22986c-0.51105,0.49888 -0.86263,1.20383 -0.84039,1.92087z M65.11857,109.45726c-0.02434,-2.79208 0.53862,-5.59064 1.70023,-8.14099c2.89429,-6.69709 9.81202,-11.51225 17.14509,-11.668c5.13963,-0.33745 10.34416,1.62236 14.10803,5.10069c4.34792,3.85472 6.74901,9.74713 6.42454,15.5357c-0.2466,6.26879 -3.77685,12.27801 -9.07223,15.61358c-2.49194,1.62236 -5.37325,2.64769 -8.33243,2.97216c-0.01298,-6.37262 -0.02596,-12.75823 0,-19.13085c1.42768,1.3498 2.7645,2.79046 4.1792,4.15324c0.45426,0.36341 0.93448,0.85661 1.57044,0.86958c1.29789,0.19468 2.67365,-0.9215 2.54386,-2.2713c0.19468,-0.84363 -0.50618,-1.44065 -0.99937,-1.98577c-2.67365,-2.64769 -5.32134,-5.32134 -7.982,-7.982c-0.68788,-0.77873 -1.99875,-0.9215 -2.80344,-0.25958c-0.79171,0.58405 -1.44065,1.32384 -2.14151,2.01172c-2.06364,2.0896 -4.15324,4.15324 -6.22986,6.22986c-0.4932,0.55809 -1.1032,1.1681 -0.99937,1.98577c-0.05192,1.12916 0.86959,2.19343 1.99875,2.2713c0.81767,0.14276 1.57044,-0.29851 2.12854,-0.86958c1.40172,-1.37576 2.75152,-2.80344 4.16622,-4.16622c0.03894,6.39858 0.01298,12.78419 0.01298,19.16979c-6.6971,-0.76575 -12.82312,-5.19155 -15.6006,-11.33055c-1.18108,-2.53088 -1.79271,-5.31647 -1.81704,-8.10855z"></path></g></g></svg>